<svg xmlns="http://www.w3.org/2000/svg" xmlns:xlink="http://www.w3.org/1999/xlink" id="Layer_1" width="506.07" height="221.733" version="1.1" viewBox="0 0 506.07 221.733" style="overflow:visible;enable-background:new 0 0 506.07 221.733" xml:space="preserve"><g><rect style="fill:#fff" width="506.07" height="221.733"/><path d="M506.07,60.497H0v-1.356h506.07V60.497z M506.07,78.856H0v-1.512h506.07V78.856z M506.07,97.072H0v-1.367h506.07V97.072z M506.07,115.289H0v-1.368h506.07V115.289z M506.07,133.516H0v-1.379h506.07V133.516z"/><path d="M80.593,132.558c-1.776,0.288-3.721,0.433-5.832,0.433c-4.465,0-7.753-0.504-9.864-1.512 c-6.721-3.217-11.473-7.178-14.257-11.882c-2.016-3.408-3.216-7.92-3.6-13.537c-0.336-4.656,0.768-9.528,3.312-14.617 c2.159-4.368,4.955-8.173,8.387-11.413s7.309-6.492,11.629-9.757c-0.24-1.2-0.576-3.576-1.008-7.129 c-0.24-3.312-0.36-5.593-0.36-6.841c0-3.456,0.288-6.744,0.864-9.865c0.575-2.832,2.039-6.144,4.392-9.937 c2.592-4.176,4.848-6.288,6.769-6.337c1.584,0,3.348,2.377,5.292,7.129c1.943,4.753,2.964,8.834,3.06,12.242 c0.096,4.513-0.36,8.401-1.368,11.666c-0.672,2.16-1.92,4.849-3.744,8.064c-0.768,1.297-2.352,3.433-4.752,6.409 c-0.672,0.865-1.561,1.753-2.664,2.665c-0.96,0.721-1.896,1.465-2.808,2.232l2.376,13.97c0.624-0.096,1.32-0.144,2.088-0.144 c4.368,0,7.752,0.889,10.152,2.664c4.512,3.312,6.983,8.041,7.416,14.186c0.336,4.272-0.624,8.232-2.88,11.881 c-2.449,3.984-6.049,6.961-10.801,8.93c0.623,4.368,1.247,8.545,1.872,12.529c0.336,2.399,0.504,4.439,0.504,6.12 c0,2.304-0.36,4.128-1.08,5.473c-2.641,4.944-6.648,7.585-12.023,7.921c-3.217,0.191-6.36-0.48-9.433-2.017 c-3.84-1.873-5.856-4.586-6.048-8.139c-0.191-2.594,0.312-4.803,1.512-6.627c1.344-2.161,3.336-3.313,5.977-3.457 c1.824-0.145,3.552,0.443,5.185,1.765c1.632,1.319,2.52,2.963,2.664,4.931c0.336,4.32-2.328,7.272-7.992,8.856 c1.296,1.871,3.888,2.808,7.776,2.808c2.063,0,4.079-0.624,6.048-1.872c1.968-1.248,3.479-2.809,4.536-4.68 c0.672-1.248,1.008-3.145,1.008-5.688c0-1.536-0.12-3.264-0.36-5.184C81.865,140.718,81.216,136.638,80.593,132.558z M76.057,104.622c-3.505,0.096-6.146,1.32-7.921,3.672c-1.344,1.824-1.944,3.864-1.8,6.12c0.048,1.68,0.66,3.396,1.836,5.148 s2.46,2.987,3.853,3.708c-0.24,0.144-0.48,0.407-0.72,0.792c-2.785-1.344-4.825-2.904-6.12-4.68c-1.92-2.593-3-5.473-3.24-8.641 c-0.145-2.111,0.336-4.319,1.44-6.624c1.199-2.496,2.951-4.632,5.255-6.408c1.729-1.344,3.696-2.279,5.904-2.808l-2.16-13.032 c-1.632,0.961-3.983,2.833-7.056,5.616c-3.792,3.408-6.552,6.456-8.279,9.144c-3.745,5.809-5.449,10.824-5.112,15.048 c0.384,5.232,2.76,9.732,7.128,13.501c4.367,3.767,9.504,5.651,15.408,5.651c1.92,0,3.84-0.217,5.76-0.648 C78.792,121.638,77.401,113.118,76.057,104.622z M82.104,41.334c-3.024,0-5.521,2.328-7.488,6.984 c-1.872,4.32-2.808,9.336-2.808,15.047c0,1.873,0.12,3.673,0.36,5.4c3.791-2.976,7.007-6.239,9.647-9.792 c3.312-4.416,4.849-8.231,4.608-11.447C86.136,43.351,84.696,41.286,82.104,41.334z M77.928,104.479l4.032,25.128 c6.096-2.064,8.88-6.792,8.353-14.184C89.737,107.79,85.608,104.143,77.928,104.479z"/><path d="M305.177,132.619h-8.639V59.827h8.639V132.619z M309.425,132.619V59.827h2.881v72.792H309.425z M319.36,80.203 c0.336,1.104,0.648,2.208,0.938,3.312c0.527,1.633,1.295,2.881,2.303,3.744c1.393,1.152,3.289,1.705,5.689,1.656 c4.512-0.048,6.768-4.224,6.768-12.527c0-3.552-0.529-6.744-1.584-9.576c-1.344-3.695-3.264-5.544-5.76-5.544 c-2.594,0-4.826,0.504-6.697,1.512c-1.584,0.816-2.375,1.56-2.375,2.231c0,0.337,0.287,0.457,0.863,0.36 c0.863-0.191,1.607-0.287,2.232-0.287c2.879,0,4.32,1.729,4.32,5.184c0,1.345-0.625,2.497-1.873,3.456 c-1.057,0.769-2.088,1.152-3.096,1.152c-1.775,0-3.24-0.842-4.393-2.525c-1.008-1.539-1.416-3.029-1.223-4.473 c0.863-6.107,6.168-8.921,15.912-8.44c3.264,0.145,6.119,1.813,8.568,5.009c2.447,3.195,3.672,7.002,3.672,11.422 c0,4.564-1.08,8.408-3.24,11.531c-2.449,3.507-5.809,5.236-10.08,5.188c-1.92,0-3.744-0.479-5.473-1.44 c-0.863-0.575-1.703-1.151-2.52-1.728c-0.432,0.48-0.936,1.704-1.512,3.672c-0.529,1.729-0.793,2.76-0.793,3.096 c0,0.287,0.264,1.319,0.793,3.096c0.576,1.92,1.08,3.144,1.512,3.672c0.816-0.576,1.656-1.152,2.52-1.728 c1.729-0.96,3.553-1.464,5.473-1.512c4.271,0,7.631,1.753,10.08,5.261c2.16,3.123,3.24,6.966,3.24,11.53 c0,4.42-1.225,8.215-3.672,11.387c-2.449,3.17-5.305,4.852-8.568,5.044c-9.744,0.48-15.049-2.333-15.912-8.44 c-0.193-1.443,0.215-2.934,1.223-4.473c1.152-1.731,2.617-2.597,4.393-2.597c1.008,0,2.039,0.407,3.096,1.224 c1.248,0.912,1.873,2.063,1.873,3.456c0,3.408-1.514,5.112-4.537,5.112c-0.576,0-1.248-0.072-2.016-0.216 c-0.527-0.145-0.791-0.049-0.791,0.288c0,0.623,0.814,1.392,2.447,2.304c1.969,1.056,4.152,1.56,6.553,1.512 c2.496,0,4.416-1.849,5.76-5.544c1.055-2.881,1.584-6.072,1.584-9.576c0-8.352-2.256-12.527-6.768-12.527 c-3.408,0-5.762,1.151-7.057,3.456c-0.721,1.728-1.441,3.432-2.16,5.111c0.191-5.473-1.609-10.752-5.4-15.84 C317.562,91.1,319.456,85.771,319.36,80.203z"/><path d="M430.347,114.393h-8.64V41.601h8.64V114.393z M434.595,114.393V41.601h2.88v72.792H434.595z M444.53,61.977 c0.336,1.104,0.648,2.208,0.937,3.312c0.527,1.633,1.296,2.881,2.304,3.744c1.392,1.152,3.288,1.705,5.688,1.656 c4.512-0.048,6.768-4.224,6.768-12.527c0-3.552-0.528-6.744-1.584-9.576c-1.344-3.695-3.264-5.544-5.76-5.544 c-2.593,0-4.825,0.504-6.696,1.512c-1.584,0.816-2.376,1.56-2.376,2.231c0,0.337,0.288,0.457,0.864,0.36 c0.863-0.191,1.607-0.287,2.231-0.287c2.88,0,4.32,1.729,4.32,5.184c0,1.345-0.624,2.497-1.872,3.456 c-1.057,0.769-2.088,1.152-3.096,1.152c-1.776,0-3.24-0.842-4.393-2.525c-1.008-1.539-1.416-3.029-1.224-4.473 c0.863-6.107,6.168-8.921,15.912-8.44c3.264,0.145,6.12,1.813,8.568,5.009c2.447,3.195,3.672,7.002,3.672,11.422 c0,4.564-1.08,8.408-3.24,11.531c-2.448,3.507-5.809,5.236-10.08,5.188c-1.92,0-3.744-0.479-5.472-1.44 c-0.864-0.575-1.704-1.151-2.521-1.728c-0.432,0.48-0.936,1.704-1.512,3.672c-0.528,1.729-0.792,2.76-0.792,3.096 c0,0.287,0.264,1.319,0.792,3.096c0.576,1.92,1.08,3.144,1.512,3.672c0.816-0.576,1.656-1.152,2.521-1.728 c1.728-0.96,3.552-1.464,5.472-1.512c4.271,0,7.632,1.753,10.08,5.261c2.16,3.123,3.24,6.966,3.24,11.53 c0,4.42-1.225,8.215-3.672,11.387c-2.448,3.17-5.305,4.852-8.568,5.044c-9.744,0.48-15.049-2.333-15.912-8.44 c-0.192-1.443,0.216-2.934,1.224-4.473c1.152-1.731,2.616-2.597,4.393-2.597c1.008,0,2.039,0.407,3.096,1.224 c1.248,0.912,1.872,2.063,1.872,3.456c0,3.408-1.513,5.112-4.536,5.112c-0.576,0-1.248-0.072-2.016-0.216 c-0.528-0.145-0.792-0.049-0.792,0.288c0,0.623,0.815,1.392,2.448,2.304c1.968,1.056,4.151,1.56,6.552,1.512 c2.496,0,4.416-1.849,5.76-5.544c1.056-2.881,1.584-6.072,1.584-9.576c0-8.352-2.256-12.527-6.768-12.527 c-3.408,0-5.761,1.151-7.057,3.456c-0.721,1.728-1.44,3.432-2.159,5.111c0.191-5.473-1.609-10.752-5.4-15.84 C442.73,72.873,444.626,67.545,444.53,61.977z"/><path d="M203.959,96.822c-1.488,2.735-3.36,5.423-5.616,8.063c-2.256,2.64-4.656,4.871-7.2,6.695 c-2.928,2.16-6.552,4.056-10.872,5.688c-2.688,1.008-6.552,1.968-11.592,2.88l-0.504-1.08c2.447-0.816,4.728-1.704,6.84-2.664 c5.04-2.256,8.808-4.704,11.304-7.343c8.063-8.4,11.976-18.6,11.736-30.598c-0.049-4.031-0.744-7.464-2.088-10.296 c-1.92-4.079-4.872-6.119-8.856-6.119c-2.832,0-5.544,0.984-8.136,2.952c-2.832,2.112-4.128,4.464-3.888,7.056 c0.048,0.145,0.144,0.216,0.288,0.216c2.64-0.672,4.584-0.983,5.832-0.936c1.68,0.049,3.071,0.864,4.176,2.448 c1.008,1.393,1.512,3.048,1.512,4.968c0,2.063-0.589,3.768-1.765,5.112c-1.176,1.343-2.82,2.016-4.932,2.016 c-2.448,0-4.512-0.792-6.191-2.376c-1.824-1.633-2.736-3.769-2.736-6.408c-0.145-6.72,2.52-11.592,7.992-14.616 c2.976-1.631,6.264-2.471,9.864-2.52c3.695-0.096,7.296,1.068,10.8,3.492s5.928,5.508,7.272,9.251 c0.815,2.256,1.224,4.68,1.224,7.271c0,2.256-0.288,4.751-0.864,7.487C206.935,90.342,205.735,93.462,203.959,96.822z M211.231,69.104c-0.049-1.104,0.312-2.015,1.08-2.735c0.768-0.72,1.704-1.104,2.808-1.152c1.104,0,2.052,0.349,2.844,1.044 c0.792,0.696,1.188,1.597,1.188,2.7c0.048,1.104-0.324,2.053-1.116,2.845s-1.716,1.188-2.771,1.188 c-1.104,0.048-2.053-0.312-2.845-1.08S211.231,70.209,211.231,69.104z M211.231,87.249c0-1.057,0.384-1.956,1.151-2.699 c0.768-0.745,1.704-1.141,2.809-1.188c1.104,0,2.04,0.359,2.808,1.08c0.768,0.72,1.176,1.607,1.225,2.664 c0,1.104-0.385,2.051-1.152,2.844c-0.768,0.791-1.68,1.188-2.735,1.188c-1.104,0.048-2.053-0.312-2.845-1.079 C211.699,89.289,211.279,88.353,211.231,87.249z"/><g><path d="M26.932,181.265h16.417l0.394,7.641h-0.938c-0.622-4.49-2.249-6.734-4.881-6.734c-0.53,0-0.894,0.091-1.09,0.273 c-0.197,0.182-0.295,0.483-0.295,0.902v16.149c0,0.328,0.096,0.569,0.287,0.725c0.191,0.154,0.505,0.232,0.942,0.232h2.036v1.031 h-9.391v-1.031h2.324c0.31,0,0.547-0.078,0.711-0.232c0.164-0.155,0.246-0.36,0.246-0.615v-16.382 c0-0.346-0.104-0.608-0.314-0.786c-0.209-0.178-0.546-0.267-1.011-0.267c-1.321,0-2.423,0.624-3.307,1.872 c-0.729,1.029-1.252,2.65-1.571,4.863h-1L26.932,181.265z"/><path d="M45.075,188.671l4.609-0.234v5.181c0.493-1.704,1.086-2.994,1.78-3.869s1.552-1.312,2.574-1.312 c0.694,0,1.248,0.212,1.664,0.636c0.415,0.424,0.623,0.991,0.623,1.702c0,0.574-0.139,1.021-0.417,1.34 c-0.277,0.319-0.626,0.479-1.045,0.479c-0.41,0-0.74-0.136-0.99-0.41c-0.251-0.273-0.376-0.643-0.376-1.107 c0-0.3,0.072-0.583,0.218-0.847c0.136-0.236,0.204-0.378,0.204-0.423c0-0.137-0.087-0.205-0.26-0.205 c-0.375,0-0.798,0.219-1.273,0.656c-0.658,0.611-1.164,1.449-1.521,2.515c-0.548,1.658-0.821,2.984-0.821,3.977v2.747 c0,0.31,0.109,0.547,0.328,0.711s0.593,0.246,1.122,0.246h1.628v1.031h-7.969v-1.031h1.275c0.43,0,0.754-0.084,0.974-0.253 c0.219-0.168,0.329-0.372,0.329-0.608v-8.161c0-0.619-0.133-1.073-0.397-1.36s-0.644-0.431-1.136-0.431h-1.123V188.671z"/><path d="M69.737,195.171h-9.172c0.045,1.946,0.41,3.319,1.094,4.119c0.784,0.9,1.782,1.35,2.994,1.35 c1.786,0,3.222-1.016,4.307-3.047l0.887,0.382c-1.332,2.589-3.256,3.883-5.772,3.883c-1.714,0-3.157-0.619-4.329-1.857 s-1.758-2.823-1.758-4.753c0-2.076,0.577-3.753,1.73-5.033c1.153-1.279,2.574-1.919,4.261-1.919c1.24,0,2.312,0.319,3.215,0.957 c0.902,0.638,1.582,1.554,2.038,2.748C69.55,192.839,69.719,193.896,69.737,195.171z M60.565,194.203h5.554 c0.329,0,0.584-0.111,0.767-0.334c0.182-0.223,0.273-0.603,0.273-1.14c0-1.001-0.312-1.852-0.938-2.553 c-0.625-0.701-1.361-1.051-2.209-1.051c-0.948,0-1.753,0.423-2.415,1.27S60.593,192.51,60.565,194.203z"/><path d="M75.69,181.031v9.535c0.537-0.761,1.133-1.329,1.788-1.705s1.37-0.564,2.144-0.564c1.502,0,2.771,0.587,3.809,1.762 c1.038,1.175,1.557,2.724,1.557,4.646c0,2.085-0.558,3.768-1.674,5.048s-2.499,1.919-4.148,1.919 c-0.783,0-1.494-0.155-2.132-0.464c-0.638-0.31-1.294-0.834-1.968-1.572c-0.519,0.829-1.019,1.508-1.5,2.037l-0.562-0.188 c0.26-1.047,0.391-2.141,0.391-3.28v-14.473c0-0.446-0.157-0.797-0.471-1.052c-0.314-0.255-0.758-0.383-1.331-0.383h-0.573v-1.031 L75.69,181.031z M79.129,189.515c-1.03,0-1.868,0.448-2.515,1.343c-0.647,0.896-0.971,2.376-0.971,4.439 c0,1.964,0.319,3.369,0.957,4.215c0.638,0.846,1.471,1.268,2.501,1.268c0.929,0,1.677-0.418,2.241-1.255 c0.711-1.055,1.066-2.559,1.066-4.514c0-1.928-0.312-3.326-0.937-4.194C80.849,189.949,80.067,189.515,79.129,189.515z"/><path d="M92.138,181.031v18.561c0,0.255,0.077,0.451,0.232,0.587c0.229,0.182,0.506,0.273,0.835,0.273h1.354v1.031h-7.266v-1.031 h1.286c0.419,0,0.732-0.1,0.938-0.3c0.205-0.2,0.308-0.483,0.308-0.847v-15.574c0-0.456-0.123-0.788-0.37-0.998 c-0.338-0.291-0.753-0.437-1.246-0.437h-1.15v-1.031L92.138,181.031z"/><path d="M108.128,195.171h-9.172c0.045,1.946,0.41,3.319,1.094,4.119c0.784,0.9,1.782,1.35,2.994,1.35 c1.786,0,3.222-1.016,4.307-3.047l0.887,0.382c-1.332,2.589-3.256,3.883-5.772,3.883c-1.714,0-3.157-0.619-4.329-1.857 s-1.758-2.823-1.758-4.753c0-2.076,0.577-3.753,1.73-5.033c1.153-1.279,2.574-1.919,4.261-1.919c1.24,0,2.312,0.319,3.215,0.957 c0.902,0.638,1.582,1.554,2.038,2.748C107.941,192.839,108.109,193.896,108.128,195.171z M98.956,194.203h5.554 c0.329,0,0.584-0.111,0.767-0.334c0.182-0.223,0.273-0.603,0.273-1.14c0-1.001-0.312-1.852-0.938-2.553 c-0.625-0.701-1.361-1.051-2.209-1.051c-0.948,0-1.753,0.423-2.415,1.27S98.983,192.51,98.956,194.203z"/><path d="M161.93,181.265h10.55c2.07,0,3.655,0.456,4.754,1.366c1.099,0.911,1.649,2.054,1.649,3.429 c0,1.147-0.384,2.122-1.15,2.923s-1.921,1.434-3.464,1.898c1.908,0.401,3.339,1.033,4.293,1.895 c0.954,0.862,1.431,1.95,1.431,3.263c0,1.003-0.271,1.893-0.814,2.667c-0.543,0.775-1.446,1.432-2.709,1.97 c-1.264,0.538-2.698,0.807-4.304,0.807H161.93v-1.031h1.672c0.503,0,0.871-0.082,1.104-0.246s0.35-0.351,0.35-0.561v-16.189 c0-0.382-0.114-0.671-0.343-0.868c-0.229-0.195-0.562-0.293-1-0.293h-1.782V181.265z M167.977,190.546h3.83 c1.176,0,2.113-0.345,2.811-1.037s1.046-1.824,1.046-3.397c0-0.973-0.167-1.732-0.499-2.278c-0.333-0.546-0.816-0.943-1.45-1.193 s-1.73-0.375-3.29-0.375c-1.104,0-1.787,0.08-2.052,0.239s-0.396,0.439-0.396,0.839V190.546z M167.977,191.578v7.783 c0,0.364,0.107,0.637,0.321,0.819c0.215,0.182,0.6,0.273,1.156,0.273h2.449c1.623,0,2.822-0.357,3.598-1.072 c0.775-0.714,1.163-1.827,1.163-3.338c0-1.383-0.401-2.474-1.204-3.27s-1.911-1.195-3.324-1.195H167.977z"/><path d="M195.297,200.062l0.494,0.768c-0.667,0.686-1.406,1.029-2.218,1.029c-0.621,0-1.144-0.168-1.568-0.504 c-0.425-0.336-0.797-0.927-1.116-1.771c-0.867,0.908-1.629,1.515-2.285,1.819c-0.657,0.304-1.446,0.457-2.367,0.457 c-1.314,0-2.313-0.282-2.997-0.846c-0.685-0.563-1.026-1.287-1.026-2.169c0-1.328,0.782-2.431,2.347-3.309 s3.647-1.462,6.247-1.753v-1.94c0-0.691-0.278-1.284-0.835-1.775s-1.264-0.738-2.121-0.738c-0.794,0-1.479,0.164-2.053,0.492 c-0.411,0.246-0.616,0.487-0.616,0.724c0,0.137,0.108,0.351,0.325,0.642c0.263,0.364,0.394,0.687,0.394,0.969 c0,0.41-0.132,0.744-0.396,1.003c-0.264,0.26-0.61,0.389-1.038,0.389c-0.455,0-0.835-0.155-1.141-0.465 c-0.305-0.31-0.457-0.707-0.457-1.189c0-0.902,0.508-1.727,1.525-2.475c1.017-0.748,2.351-1.121,4.001-1.121 c1.523,0,2.686,0.328,3.488,0.983c0.803,0.664,1.204,1.47,1.204,2.416v6.989c0,0.619,0.101,1.074,0.302,1.365 c0.201,0.301,0.462,0.451,0.782,0.451C194.528,200.5,194.903,200.354,195.297,200.062z M190.807,194.687 c-2.32,0.318-3.965,0.836-4.933,1.555c-0.722,0.545-1.083,1.318-1.083,2.318c0,0.7,0.188,1.248,0.562,1.644 c0.375,0.396,0.863,0.593,1.467,0.593c1.078,0,2.012-0.407,2.802-1.22s1.186-1.834,1.186-3.062V194.687z"/><path d="M198.879,196.671c0.563,1.567,1.212,2.651,1.944,3.253c0.732,0.602,1.634,0.903,2.708,0.903 c0.991,0,1.753-0.216,2.285-0.649c0.532-0.433,0.798-0.982,0.798-1.647c0-0.383-0.098-0.718-0.294-1.005 c-0.196-0.287-0.468-0.501-0.814-0.643s-1.245-0.348-2.694-0.622c-1.387-0.273-2.353-0.56-2.899-0.86 c-0.547-0.3-0.973-0.715-1.277-1.243c-0.306-0.528-0.458-1.102-0.458-1.721c0-0.938,0.314-1.789,0.944-2.555 c0.812-0.974,1.948-1.461,3.408-1.461c1.113,0,2.144,0.35,3.093,1.05l0.903-0.957h0.561l0.356,4.562h-0.922 c-0.401-1.291-0.944-2.22-1.628-2.789c-0.684-0.568-1.528-0.852-2.531-0.852c-0.867,0-1.546,0.211-2.039,0.634 s-0.739,0.938-0.739,1.548c0,0.537,0.228,0.982,0.685,1.337c0.447,0.363,1.322,0.649,2.627,0.856 c1.515,0.252,2.5,0.464,2.956,0.635c0.749,0.274,1.329,0.696,1.74,1.268c0.411,0.57,0.617,1.267,0.617,2.089 c0,1.133-0.445,2.092-1.334,2.877c-0.89,0.786-2.019,1.178-3.387,1.178c-1.268,0-2.445-0.414-3.531-1.241l-0.999,1.147h-0.726 l-0.273-5.094H198.879z"/><path d="M211.84,196.671c0.563,1.567,1.212,2.651,1.944,3.253c0.732,0.602,1.634,0.903,2.708,0.903 c0.991,0,1.753-0.216,2.285-0.649c0.532-0.433,0.798-0.982,0.798-1.647c0-0.383-0.098-0.718-0.294-1.005 c-0.196-0.287-0.468-0.501-0.814-0.643s-1.245-0.348-2.694-0.622c-1.387-0.273-2.353-0.56-2.899-0.86 c-0.547-0.3-0.973-0.715-1.277-1.243c-0.306-0.528-0.458-1.102-0.458-1.721c0-0.938,0.314-1.789,0.944-2.555 c0.812-0.974,1.948-1.461,3.408-1.461c1.113,0,2.144,0.35,3.093,1.05l0.903-0.957h0.561l0.356,4.562h-0.922 c-0.401-1.291-0.944-2.22-1.628-2.789c-0.684-0.568-1.528-0.852-2.531-0.852c-0.867,0-1.546,0.211-2.039,0.634 s-0.739,0.938-0.739,1.548c0,0.537,0.228,0.982,0.685,1.337c0.447,0.363,1.322,0.649,2.627,0.856 c1.515,0.252,2.5,0.464,2.956,0.635c0.749,0.274,1.329,0.696,1.74,1.268c0.411,0.57,0.617,1.267,0.617,2.089 c0,1.133-0.445,2.092-1.334,2.877c-0.89,0.786-2.019,1.178-3.387,1.178c-1.268,0-2.445-0.414-3.531-1.241l-0.999,1.147h-0.726 l-0.273-5.094H211.84z"/><path d="M299.076,180.843h0.944l7.251,18.49c0.291,0.746,0.888,1.12,1.789,1.12h0.628v1.031h-8.062v-1.031h0.643 c0.838,0,1.43-0.091,1.776-0.273c0.236-0.128,0.355-0.323,0.355-0.587c0-0.155-0.032-0.319-0.096-0.492l-1.675-4.289h-7.991 l-0.948,2.458c-0.246,0.656-0.369,1.175-0.369,1.557c0,0.446,0.207,0.829,0.622,1.147c0.414,0.319,1.019,0.478,1.812,0.478h0.684 v1.031h-7.328v-1.031c0.784,0,1.403-0.17,1.859-0.512c0.456-0.341,0.875-0.99,1.258-1.946L299.076,180.843z M298.696,184.736 l-3.616,9.014h7.135L298.696,184.736z"/><path d="M315.3,181.031v18.561c0,0.255,0.077,0.451,0.232,0.587c0.229,0.182,0.507,0.273,0.835,0.273h1.354v1.031h-7.266v-1.031 h1.286c0.42,0,0.732-0.1,0.938-0.3s0.308-0.483,0.308-0.847v-15.574c0-0.456-0.123-0.788-0.37-0.998 c-0.338-0.291-0.753-0.437-1.245-0.437h-1.15v-1.031L315.3,181.031z"/><path d="M322.634,183.453h0.922v5.219h4.141v1.266h-4.141v8.208c0,0.71,0.169,1.254,0.506,1.632s0.765,0.567,1.284,0.567 c0.619,0,1.148-0.287,1.585-0.861c0.438-0.574,0.692-1.521,0.766-2.842h0.922c-0.055,1.705-0.442,2.969-1.162,3.794 c-0.721,0.825-1.655,1.237-2.804,1.237c-1.058,0-1.885-0.289-2.482-0.868c-0.597-0.578-0.896-1.336-0.896-2.274v-8.592h-2.234 v-0.963c1.015-0.173,1.788-0.597,2.318-1.271C322.145,186.692,322.57,185.275,322.634,183.453z"/><path d="M336.2,188.296c1.722,0,3.169,0.622,4.339,1.865c1.172,1.243,1.757,2.879,1.757,4.91c0,1.402-0.262,2.597-0.786,3.585 c-0.523,0.988-1.271,1.769-2.241,2.342c-0.971,0.574-2.017,0.86-3.137,0.86c-1.658,0-3.063-0.628-4.217-1.885 c-1.152-1.256-1.729-2.886-1.729-4.89c0-2.012,0.578-3.647,1.735-4.903S334.506,188.296,336.2,188.296z M336.2,189.265 c-1.021,0-1.858,0.462-2.515,1.386c-0.655,0.925-0.983,2.384-0.983,4.378c0,2.031,0.325,3.515,0.978,4.454 c0.65,0.938,1.491,1.407,2.521,1.407c1.065,0,1.929-0.469,2.589-1.407c0.661-0.938,0.991-2.473,0.991-4.604 c0-1.977-0.325-3.406-0.978-4.29C338.152,189.707,337.284,189.265,336.2,189.265z"/><path d="M408.095,181.265h16.417l0.395,7.641h-0.938c-0.621-4.49-2.248-6.734-4.881-6.734c-0.53,0-0.894,0.091-1.09,0.273 c-0.197,0.182-0.295,0.483-0.295,0.902v16.149c0,0.328,0.096,0.569,0.287,0.725c0.191,0.154,0.506,0.232,0.942,0.232h2.036v1.031 h-9.391v-1.031h2.324c0.31,0,0.547-0.078,0.711-0.232c0.164-0.155,0.246-0.36,0.246-0.615v-16.382 c0-0.346-0.104-0.608-0.314-0.786c-0.209-0.178-0.547-0.267-1.011-0.267c-1.321,0-2.423,0.624-3.307,1.872 c-0.729,1.029-1.253,2.65-1.571,4.863h-1L408.095,181.265z"/><path d="M438.473,195.171h-9.172c0.045,1.946,0.41,3.319,1.094,4.119c0.783,0.9,1.781,1.35,2.994,1.35 c1.786,0,3.222-1.016,4.307-3.047l0.887,0.382c-1.332,2.589-3.256,3.883-5.772,3.883c-1.714,0-3.157-0.619-4.329-1.857 s-1.758-2.823-1.758-4.753c0-2.076,0.576-3.753,1.73-5.033c1.153-1.279,2.574-1.919,4.261-1.919c1.24,0,2.312,0.319,3.215,0.957 c0.902,0.638,1.582,1.554,2.038,2.748C438.285,192.839,438.454,193.896,438.473,195.171z M429.301,194.203h5.554 c0.329,0,0.584-0.111,0.767-0.334c0.182-0.223,0.273-0.603,0.273-1.14c0-1.001-0.312-1.852-0.938-2.553s-1.361-1.051-2.209-1.051 c-0.948,0-1.754,0.423-2.414,1.27C429.672,191.24,429.328,192.51,429.301,194.203z"/><path d="M440.457,188.671l4.25-0.266c0.17,0.802,0.295,1.741,0.375,2.817c0.574-0.929,1.252-1.625,2.032-2.089 s1.663-0.696,2.648-0.696c0.849,0,1.561,0.167,2.136,0.499c0.574,0.333,1.035,0.859,1.382,1.579 c0.347,0.72,0.521,1.526,0.521,2.42v6.233c0,0.465,0.104,0.795,0.314,0.991c0.209,0.196,0.559,0.294,1.051,0.294h0.9v1.031h-6.75 v-1.031h0.641c0.601,0,1.019-0.096,1.255-0.287s0.354-0.479,0.354-0.862v-5.483c0-1.194-0.183-2.078-0.547-2.652 c-0.511-0.82-1.286-1.231-2.326-1.231c-1.03,0-1.891,0.415-2.578,1.245c-0.689,0.829-1.033,1.91-1.033,3.24v4.745 c0,0.465,0.106,0.796,0.32,0.992s0.566,0.294,1.059,0.294h0.887v1.031h-6.766v-1.031h0.887c0.445,0,0.783-0.091,1.016-0.273 c0.231-0.183,0.348-0.41,0.348-0.684v-8.267c0-0.546-0.148-0.961-0.443-1.244c-0.296-0.282-0.722-0.423-1.276-0.423h-0.655 V188.671z"/><path d="M463.59,188.296c1.723,0,3.168,0.622,4.34,1.865c1.17,1.243,1.756,2.879,1.756,4.91c0,1.402-0.262,2.597-0.786,3.585 c-0.523,0.988-1.271,1.769-2.241,2.342s-2.016,0.86-3.137,0.86c-1.658,0-3.064-0.628-4.217-1.885s-1.729-2.886-1.729-4.89 c0-2.012,0.578-3.647,1.735-4.903S461.895,188.296,463.59,188.296z M463.59,189.265c-1.021,0-1.858,0.462-2.514,1.386 c-0.656,0.925-0.984,2.384-0.984,4.378c0,2.031,0.326,3.515,0.977,4.454c0.652,0.938,1.492,1.407,2.521,1.407 c1.065,0,1.929-0.469,2.59-1.407c0.66-0.938,0.99-2.473,0.99-4.604c0-1.977-0.326-3.406-0.977-4.29 C465.541,189.707,464.674,189.265,463.59,189.265z"/><path d="M471.342,188.671l4.609-0.234v5.181c0.492-1.704,1.086-2.994,1.779-3.869c0.694-0.875,1.553-1.312,2.574-1.312 c0.694,0,1.248,0.212,1.664,0.636c0.415,0.424,0.623,0.991,0.623,1.702c0,0.574-0.139,1.021-0.417,1.34 c-0.277,0.319-0.626,0.479-1.045,0.479c-0.41,0-0.74-0.136-0.99-0.41c-0.251-0.273-0.376-0.643-0.376-1.107 c0-0.3,0.072-0.583,0.218-0.847c0.136-0.236,0.204-0.378,0.204-0.423c0-0.137-0.087-0.205-0.26-0.205 c-0.375,0-0.799,0.219-1.273,0.656c-0.658,0.611-1.164,1.449-1.521,2.515c-0.548,1.658-0.821,2.984-0.821,3.977v2.747 c0,0.31,0.109,0.547,0.328,0.711s0.593,0.246,1.122,0.246h1.628v1.031h-7.969v-1.031h1.275c0.43,0,0.754-0.084,0.974-0.253 s0.329-0.372,0.329-0.608v-8.161c0-0.619-0.133-1.073-0.397-1.36s-0.644-0.431-1.136-0.431h-1.123V188.671z"/></g></g></svg>