<?xml version="1.0" encoding="UTF-8" standalone="no"?>
<!-- Created with Inkscape (http://www.inkscape.org/) -->
<svg xmlns:dc="http://purl.org/dc/elements/1.1/" xmlns:cc="http://creativecommons.org/ns#" xmlns:rdf="http://www.w3.org/1999/02/22-rdf-syntax-ns#" xmlns:svg="http://www.w3.org/2000/svg" xmlns="http://www.w3.org/2000/svg" xmlns:sodipodi="http://sodipodi.sourceforge.net/DTD/sodipodi-0.dtd" xmlns:inkscape="http://www.inkscape.org/namespaces/inkscape" id="svg4136" version="1.1" inkscape:version="0.48.0 r9654" width="428.75052" height="100" sodipodi:docname="Music-staff.svg">
  <metadata id="metadata4142">
    <rdf:RDF>
      <cc:Work rdf:about="">
        <dc:format>image/svg+xml</dc:format>
        <dc:type rdf:resource="http://purl.org/dc/dcmitype/StillImage"/>
        <dc:title/>
      </cc:Work>
    </rdf:RDF>
  </metadata>
  <defs id="defs4140">
    <inkscape:perspective sodipodi:type="inkscape:persp3d" inkscape:vp_x="0 : 0.5 : 1" inkscape:vp_y="0 : 1000 : 0" inkscape:vp_z="1 : 0.5 : 1" inkscape:persp3d-origin="0.5 : 0.33333333 : 1" id="perspective4144"/>
  </defs>
  <sodipodi:namedview pagecolor="#ffffff" bordercolor="#666666" borderopacity="1" objecttolerance="10" gridtolerance="10" guidetolerance="10" inkscape:pageopacity="0" inkscape:pageshadow="2" inkscape:window-width="1680" inkscape:window-height="1000" id="namedview4138" showgrid="false" inkscape:zoom="2.88746" inkscape:cx="214.37527" inkscape:cy="50" inkscape:window-x="-8" inkscape:window-y="-8" inkscape:window-maximized="1" inkscape:current-layer="svg4136" fit-margin-top="0" fit-margin-left="0" fit-margin-right="0" fit-margin-bottom="0">
    <inkscape:grid type="xygrid" id="grid4150" empspacing="5" visible="true" enabled="true" snapvisiblegridlinesonly="true"/>
  </sodipodi:namedview>
  <g id="g3937" transform="translate(109.8125,0)">
    <path id="path4152" d="m 0,98 0,-2 100,0 100,0 0,2 0,2 -100,0 -100,0 0,-2 z m 0,-24 0,-2 100,0 100,0 0,2 0,2 -100,0 -100,0 0,-2 z m 0,-24 0,-2 100,0 100,0 0,2 0,2 -100,0 -100,0 0,-2 z m 0,-24 0,-2 100,0 100,0 0,2 0,2 L 100,28 0,28 0,26 z M 0,2 0,0 100,0 200,0 200,2 200,4 100,4 0,4 0,2 z" style="fill:#000000" inkscape:connector-curvature="0"/>
    <g id="g3920">
      <g id="g3885">
        <path id="rect2988" d="m 197.8125,8.375 -0.59375,0.84375 c 24.43274,16.725947 37.05142,26.41313 43.53125,31.875 3.23991,2.730935 4.92635,4.392824 5.8125,5.375 0.0839,0.09302 0.0865,0.106792 0.15625,0.1875 L 196.25,36.625 l -0.1875,1.03125 51.65625,10.28125 -50.90625,10.21875 0.21875,1.03125 49.71875,-10 c -0.0707,0.08259 -0.0706,0.09181 -0.15625,0.1875 -0.87313,0.975938 -2.55782,2.661531 -5.75,5.375 -6.38435,5.426939 -18.80209,15.005925 -42.875,31.625 l 0.59375,0.875 c 24.08933,-16.630417 36.53835,-26.252671 42.96875,-31.71875 3.2152,-2.73304 4.92149,-4.40665 5.84375,-5.4375 0.16546,-0.184947 0.28836,-0.319963 0.40625,-0.46875 l 0,4.96875 a 0.22973595,0.22973595 0 0 0 0,0.03125 0.22973595,0.22973595 0 0 0 0,0.0625 0.22973595,0.22973595 0 0 0 0.0312,0.0625 0.22973595,0.22973595 0 0 0 0.0312,0.03125 0.22973595,0.22973595 0 0 0 0.0625,0.03125 0.22973595,0.22973595 0 0 0 0.0625,0.03125 0.22973595,0.22973595 0 0 0 0.0312,0 l 70.71875,0 a 0.22973595,0.22973595 0 0 0 0.0312,0 0.22973595,0.22973595 0 0 0 0.0625,-0.03125 0.22973595,0.22973595 0 0 0 0.0312,-0.03125 0.22973595,0.22973595 0 0 0 0.0625,-0.0625 0.22973595,0.22973595 0 0 0 0.0312,-0.0625 0.22973595,0.22973595 0 0 0 0,-0.03125 0.22973595,0.22973595 0 0 0 0,-0.03125 l 0,-12.625 a 0.22973595,0.22973595 0 0 0 0,-0.03125 0.22973595,0.22973595 0 0 0 0,-0.03125 0.22973595,0.22973595 0 0 0 -0.0312,-0.0625 0.22973595,0.22973595 0 0 0 -0.0312,-0.03125 0.22973595,0.22973595 0 0 0 -0.0312,-0.03125 0.22973595,0.22973595 0 0 0 -0.0625,-0.03125 0.22973595,0.22973595 0 0 0 -0.0312,0 0.22973595,0.22973595 0 0 0 -0.0312,0 L 248,41.75 a 0.22973595,0.22973595 0 0 0 -0.0312,0 0.22973595,0.22973595 0 0 0 -0.0312,0 0.22973595,0.22973595 0 0 0 -0.0312,0 0.22973595,0.22973595 0 0 0 -0.0312,0.03125 0.22973595,0.22973595 0 0 0 -0.0937,0.09375 0.22973595,0.22973595 0 0 0 0,0.03125 0.22973595,0.22973595 0 0 0 0,0.03125 0.22973595,0.22973595 0 0 0 0,0.03125 l 0,4.34375 c -0.14609,-0.175649 -0.21073,-0.279906 -0.4375,-0.53125 -0.93608,-1.037515 -2.67427,-2.74941 -5.9375,-5.5 C 234.87979,34.780069 222.26183,25.11231 197.8125,8.375 z m 50.40625,33.8125 70.25,0 0,12.1875 -70.25,0 0,-5.375 c 0.006,-0.0094 0.0253,-0.02223 0.0312,-0.03125 0.0776,-0.117282 0.12206,-0.182031 0.15625,-0.25 0.0342,-0.06797 0.0625,-0.15625 0.0625,-0.15625 l 0.125,-0.4375 0.125,0.03125 -0.0625,-0.21875 0.0625,-0.21875 -0.125,0.03125 -0.125,-0.4375 c 0,0 -0.0277,-0.08768 -0.0625,-0.15625 -0.0348,-0.06857 -0.0774,-0.163144 -0.15625,-0.28125 -0.005,-0.0073 -0.0261,-0.02373 -0.0312,-0.03125 l 0,-4.65625 z" style="font-size:medium;font-style:normal;font-variant:normal;font-weight:normal;font-stretch:normal;text-indent:0;text-align:start;text-decoration:none;line-height:normal;letter-spacing:normal;word-spacing:normal;text-transform:none;direction:ltr;block-progression:tb;writing-mode:lr-tb;text-anchor:start;baseline-shift:baseline;color:#000000;fill:#008080;fill-opacity:1;stroke:none;stroke-width:0.45942596;marker:none;visibility:visible;display:inline;overflow:visible;enable-background:accumulate;font-family:Sans;-inkscape-font-specification:Sans" inkscape:connector-curvature="0"/>
        <g id="text2984" style="font-size:20px;font-style:normal;font-variant:normal;font-weight:normal;font-stretch:normal;text-align:start;line-height:125%;letter-spacing:0px;word-spacing:0px;writing-mode:lr-tb;text-anchor:start;fill:#000000;fill-opacity:1;stroke:none;font-family:Lucida Console;-inkscape-font-specification:Lucida Console">
          <path id="path3865" d="m 248.94078,53.061523 0,-1.738281 c 1.49088,0.644533 2.77994,0.966798 3.86719,0.966797 0.78124,10e-7 1.4274,-0.157876 1.93847,-0.473633 0.51106,-0.315753 0.7666,-0.714516 0.76661,-1.196289 -1e-5,-0.618486 -0.60874,-1.123043 -1.82618,-1.513672 l -2.06054,-0.673828 c -1.60808,-0.520828 -2.41211,-1.438795 -2.41211,-2.753906 0,-0.963533 0.36295,-1.708975 1.08887,-2.236328 0.7259,-0.527333 1.75292,-0.791005 3.08105,-0.791016 0.99609,1.1e-5 2.15168,0.153006 3.4668,0.458985 l 0,1.5625 c -1.26954,-0.384106 -2.4284,-0.576163 -3.47657,-0.576172 -0.70313,9e-6 -1.26465,0.126962 -1.68457,0.380859 -0.41992,0.253915 -0.62988,0.595712 -0.62988,1.025391 0,0.527351 0.47851,0.957038 1.43555,1.289062 l 2.43164,0.84961 c 0.88541,0.312505 1.5218,0.685226 1.90918,1.118164 0.38736,0.432947 0.58104,0.99447 0.58105,1.68457 -1e-5,1.002606 -0.41342,1.801759 -1.24023,2.397461 -0.82683,0.595703 -1.93686,0.893554 -3.33008,0.893555 -1.21745,-10e-7 -2.51953,-0.22461 -3.90625,-0.673829 z" inkscape:connector-curvature="0"/>
          <path id="path3867" d="m 260.93297,57.348633 0,-14.462891 1.92383,0 0,1.992188 c 0.93098,-1.484365 2.08658,-2.226552 3.46679,-2.226563 1.20442,1.1e-5 2.15331,0.463878 2.84668,1.391602 0.69335,0.927743 1.04003,2.19239 1.04004,3.793945 -10e-6,1.757816 -0.41016,3.180341 -1.23047,4.267578 -0.82032,1.08724 -1.89454,1.630859 -3.22265,1.63086 -1.13933,-10e-7 -2.10613,-0.481771 -2.90039,-1.445313 l 0,5.058594 z m 1.92383,-6.503906 c 0.89192,0.963543 1.77082,1.445313 2.63672,1.445312 0.84634,10e-7 1.50227,-0.37272 1.96777,-1.118164 0.46548,-0.74544 0.69823,-1.788733 0.69824,-3.129883 -1e-5,-2.499992 -0.74545,-3.749991 -2.23633,-3.75 -1.08724,9e-6 -2.10938,0.677092 -3.0664,2.03125 z" inkscape:connector-curvature="0"/>
          <path id="path3869" d="m 279.40953,52.211914 c -1.16537,0.976563 -2.32748,1.464844 -3.48633,1.464844 -0.97005,0 -1.76921,-0.276693 -2.39746,-0.830078 -0.62826,-0.553385 -0.94238,-1.253254 -0.94238,-2.09961 0,-1.100256 0.48828,-1.985672 1.46484,-2.65625 0.97656,-0.670567 2.26562,-1.005853 3.86719,-1.005859 l 1.19141,0 0,-0.908203 c -1e-5,-0.74869 -0.16603,-1.282544 -0.49805,-1.601563 -0.33204,-0.319001 -0.88217,-0.478506 -1.65039,-0.478515 -1.11329,9e-6 -2.26563,0.312509 -3.45703,0.9375 l 0,-1.650391 c 1.36718,-0.488271 2.64973,-0.732411 3.84765,-0.732422 1.34765,1.1e-5 2.2998,0.266938 2.85645,0.800781 0.55663,0.533864 0.83495,1.455087 0.83496,2.763672 l 0,4.44336 c -10e-6,0.638023 0.0684,1.072593 0.20508,1.303711 0.13671,0.231121 0.39387,0.34668 0.77148,0.346679 0.12369,10e-7 0.32551,-0.03255 0.60547,-0.09766 l 0.17578,1.152344 c -0.64454,0.208333 -1.13282,0.3125 -1.46484,0.3125 -0.95053,0 -1.59181,-0.488281 -1.92383,-1.464844 z m -0.30273,-1.25 0,-2.675781 -0.57618,0 c -2.63672,5e-6 -3.95508,0.712895 -3.95507,2.138672 -1e-5,0.514325 0.16926,0.927736 0.50781,1.240234 0.33854,0.312502 0.78775,0.468751 1.34766,0.46875 0.83983,10e-7 1.73176,-0.390623 2.67578,-1.171875 z" inkscape:connector-curvature="0"/>
          <path id="path3871" d="m 294.09703,53.149414 c -1.13933,0.390625 -2.2754,0.585937 -3.4082,0.585938 -1.84897,-10e-7 -3.27312,-0.481771 -4.27246,-1.445313 -0.99935,-0.963539 -1.49903,-2.330726 -1.49903,-4.101562 0,-1.738275 0.49317,-3.095695 1.4795,-4.072266 0.98632,-0.976552 2.35839,-1.464833 4.11621,-1.464844 1.11978,1.1e-5 2.24934,0.169282 3.38867,0.507813 l 0,1.611328 c -1.25652,-0.44921 -2.32748,-0.673819 -3.21289,-0.673828 -1.15886,9e-6 -2.06869,0.364592 -2.72949,1.09375 -0.66082,0.729174 -0.99122,1.728522 -0.99122,2.998047 0,1.282556 0.35319,2.286786 1.05957,3.012695 0.70638,0.725913 1.68131,1.088868 2.92481,1.088867 0.93098,10e-7 1.97916,-0.218097 3.14453,-0.654297 z" inkscape:connector-curvature="0"/>
          <path id="path3873" d="m 306.11852,53.071289 c -1.33465,0.442708 -2.55861,0.664062 -3.67188,0.664063 -1.82292,-10e-7 -3.22429,-0.46875 -4.2041,-1.40625 -0.97982,-0.937498 -1.46973,-2.278643 -1.46973,-4.023438 0,-1.647129 0.47038,-3.001294 1.41113,-4.0625 0.94076,-1.061188 2.13704,-1.591786 3.58887,-1.591797 1.46484,1.1e-5 2.54394,0.439464 3.23731,1.31836 0.69335,0.878914 1.04002,2.246101 1.04004,4.101562 l 0,0.615234 -7.22657,0 c 0.14323,2.402347 1.4388,3.603517 3.88672,3.603516 1.03515,10e-7 2.17122,-0.247394 3.40821,-0.742187 z m -7.23633,-5.830078 5.11718,0 0,-0.273438 c 0,-1.914054 -0.79753,-2.871084 -2.39257,-2.871093 -0.76824,9e-6 -1.39161,0.276702 -1.87012,0.830078 -0.47852,0.553393 -0.76335,1.324877 -0.85449,2.314453 z" inkscape:connector-curvature="0"/>
          <path id="path3875" d="m 309.29234,53.061523 0,-1.738281 c 1.49089,0.644533 2.77995,0.966798 3.86719,0.966797 0.78124,10e-7 1.4274,-0.157876 1.93848,-0.473633 0.51106,-0.315753 0.76659,-0.714516 0.7666,-1.196289 -1e-5,-0.618486 -0.60873,-1.123043 -1.82617,-1.513672 l -2.06055,-0.673828 c -1.60808,-0.520828 -2.41211,-1.438795 -2.41211,-2.753906 0,-0.963533 0.36295,-1.708975 1.08887,-2.236328 0.72591,-0.527333 1.75292,-0.791005 3.08105,-0.791016 0.99609,1.1e-5 2.15169,0.153006 3.4668,0.458985 l 0,1.5625 c -1.26954,-0.384106 -2.42839,-0.576163 -3.47656,-0.576172 -0.70313,9e-6 -1.26466,0.126962 -1.68457,0.380859 -0.41993,0.253915 -0.62989,0.595712 -0.62989,1.025391 0,0.527351 0.47851,0.957038 1.43555,1.289062 l 2.43164,0.84961 c 0.88541,0.312505 1.5218,0.685226 1.90918,1.118164 0.38736,0.432947 0.58105,0.99447 0.58106,1.68457 -1e-5,1.002606 -0.41343,1.801759 -1.24024,2.397461 -0.82683,0.595703 -1.93685,0.893554 -3.33008,0.893555 -1.21745,-10e-7 -2.51953,-0.22461 -3.90625,-0.673829 z" inkscape:connector-curvature="0"/>
        </g>
      </g>
    </g>
    <g id="g3905">
      <path id="path3805" d="m 0.40625,1.5 -45.59375,47.84375 0,-10.78125 0,-0.5 -0.5,0 -63.625,0 -0.5,0 0,0.5 0,22.9375 0,0.5 0.5,0 63.625,0 0.5,0 0,-0.5 0,-9.84375 L 1.4375,98.8125 2.15625,98.09375 -43.25,52.21875 0.6875,74.8125 1.15625,73.9375 -43.4375,51 l 44.65625,0 0,-1 -44.40625,0 45.21875,-23.5 -0.46875,-0.875 -45,23.34375 L 1.125,2.1875 0.40625,1.5 z m -109.21875,37.5625 62.625,0 0,11.34375 -0.03125,0.03125 0.03125,0.03125 0,10.53125 -62.625,0 0,-21.9375 z" style="font-size:medium;font-style:normal;font-variant:normal;font-weight:normal;font-stretch:normal;text-indent:0;text-align:start;text-decoration:none;line-height:normal;letter-spacing:normal;word-spacing:normal;text-transform:none;direction:ltr;block-progression:tb;writing-mode:lr-tb;text-anchor:start;baseline-shift:baseline;color:#000000;fill:#aa0000;fill-opacity:1;stroke:none;stroke-width:1px;marker:none;visibility:visible;display:inline;overflow:visible;enable-background:accumulate;font-family:Sans;-inkscape-font-specification:Sans" inkscape:connector-curvature="0"/>
      <g id="g3895">
        <g id="g3877">
          <g style="font-size:20px;font-style:normal;font-variant:normal;font-weight:normal;font-stretch:normal;text-align:start;line-height:125%;letter-spacing:0px;word-spacing:0px;writing-mode:lr-tb;text-anchor:start;fill:#000000;fill-opacity:1;stroke:none;font-family:Lucida Console;-inkscape-font-specification:Lucida Console" id="text3811">
            <path d="m -101.85777,57.587891 0,-13.97461 -4.0918,0 0,-1.445312 6.025391,0 0,15.419922 z" id="path3854" inkscape:connector-curvature="0"/>
            <path d="m -90.021835,57.587891 0,-9.160157 -3.857422,0 0,-1.445312 5.78125,0 0,10.605469 z m -0.244141,-13.007813 0,-2.412109 2.412109,0 0,2.412109 z" id="path3856" inkscape:connector-curvature="0"/>
            <path d="m -81.721054,57.587891 0,-10.605469 1.923828,0 0,1.992187 c 0.885412,-1.484365 2.089838,-2.226551 3.613281,-2.226562 2.01171,1.1e-5 3.017568,1.194671 3.017578,3.583984 l 0,7.25586 -1.923828,0 0,-6.728516 c -8e-6,-0.826815 -0.128589,-1.41438 -0.385742,-1.762695 -0.257169,-0.348299 -0.688484,-0.522452 -1.293945,-0.522461 -0.963548,9e-6 -1.972661,0.693367 -3.027344,2.080078 l 0,6.933594 z" id="path3858" inkscape:connector-curvature="0"/>
            <path d="m -60.705429,57.167969 c -1.334645,0.442708 -2.558602,0.664062 -3.671875,0.664062 -1.822922,0 -3.224288,-0.46875 -4.204102,-1.40625 -0.979819,-0.937498 -1.469728,-2.278642 -1.469726,-4.023437 -2e-6,-1.647129 0.470376,-3.001294 1.411133,-4.0625 0.940751,-1.061188 2.137039,-1.591786 3.588867,-1.591797 1.464836,1.1e-5 2.543936,0.439463 3.237304,1.318359 0.69335,0.878915 1.040029,2.246101 1.04004,4.101563 l 0,0.615234 -7.226563,0 c 0.143226,2.402346 1.438797,3.603517 3.886719,3.603516 1.035148,10e-7 2.171214,-0.247395 3.408203,-0.742188 z m -7.236328,-5.830078 5.117187,0 0,-0.273438 c -8e-6,-1.914054 -0.797534,-2.871084 -2.392578,-2.871094 -0.768234,10e-6 -1.391606,0.276702 -1.870117,0.830078 -0.47852,0.553394 -0.76335,1.324878 -0.854492,2.314454 z" id="path3860" inkscape:connector-curvature="0"/>
            <path d="m -57.531601,57.158203 0,-1.738281 c 1.490882,0.644533 2.779943,0.966798 3.867188,0.966797 0.781243,10e-7 1.427401,-0.157876 1.938476,-0.473633 0.51106,-0.315753 0.766593,-0.714516 0.766602,-1.196289 -9e-6,-0.618486 -0.608732,-1.123043 -1.826172,-1.513672 l -2.060547,-0.673828 c -1.608076,-0.520828 -2.412112,-1.438796 -2.412109,-2.753906 -3e-6,-0.963533 0.362953,-1.708975 1.088867,-2.236329 0.725907,-0.527333 1.752924,-0.791004 3.081054,-0.791015 0.996087,1.1e-5 2.151685,0.153005 3.466797,0.458984 l 0,1.5625 c -1.269539,-0.384105 -2.428392,-0.576162 -3.476562,-0.576172 -0.703131,10e-6 -1.264654,0.126963 -1.684571,0.38086 -0.419926,0.253915 -0.629886,0.595711 -0.629882,1.02539 -4e-6,0.527352 0.478511,0.957039 1.435547,1.289063 l 2.43164,0.849609 c 0.885408,0.312506 1.521801,0.685227 1.90918,1.118164 0.38736,0.432947 0.581044,0.99447 0.581055,1.684571 -1.1e-5,1.002606 -0.413422,1.801759 -1.240235,2.397461 -0.826831,0.595703 -1.936856,0.893554 -3.330078,0.893554 -1.217452,0 -2.519534,-0.224609 -3.90625,-0.673828 z" id="path3862" inkscape:connector-curvature="0"/>
          </g>
        </g>
      </g>
    </g>
  </g>
</svg>