<svg xmlns="http://www.w3.org/2000/svg" xmlns:xlink="http://www.w3.org/1999/xlink" id="Layer_1" x="0" y="0" version="1.1" viewBox="0 0 400 225" style="enable-background:new 0 0 400 225" xml:space="preserve"><style type="text/css">.st0{fill:#94e4ea}.st1{opacity:.38}.st2{fill:#fff}.st3{fill:#017c6b}.st4{opacity:.1}.st5{fill:#5cc55e}.st6{fill:#47ac49}.st7{fill:#3c943b}.st8{fill:#8fbaf7}.st9{fill:#2a4c78}.st10{fill:#1d0ee0}.st11{fill:#f9fdfe}.st11,.st12,.st13{clip-path:url(#SVGID_4_)}.st12{fill:#f8fdfe}.st13{fill:#f7fcfe}.st14{fill:#f6fcfe}.st14,.st15,.st16,.st17,.st18{clip-path:url(#SVGID_4_)}.st15{fill:#f5fcfe}.st16{fill:#f4fcfe}.st17{fill:#f3fbfe}.st18{fill:#f2fbfd}.st19{fill:#f1fbfd}.st19,.st20,.st21,.st22,.st23{clip-path:url(#SVGID_4_)}.st20{fill:#f0fbfd}.st21{fill:#effafd}.st22{fill:#eefafd}.st23{fill:#edfafd}.st24{fill:#ecfafd}.st24,.st25,.st26,.st27,.st28{clip-path:url(#SVGID_4_)}.st25{fill:#ebf9fd}.st26{fill:#eaf9fd}.st27{fill:#e9f9fd}.st28{fill:#e8f9fd}.st29{fill:#e7f8fd}.st29,.st30,.st31,.st32,.st33{clip-path:url(#SVGID_4_)}.st30{fill:#e6f8fd}.st31{fill:#e5f8fc}.st32{fill:#e4f8fc}.st33{fill:#e3f7fc}.st34{fill:#e2f7fc}.st34,.st35,.st36,.st37,.st38{clip-path:url(#SVGID_4_)}.st35{fill:#e1f7fc}.st36{fill:#e0f7fc}.st37{fill:#dff6fc}.st38{fill:#def6fc}.st39{fill:#ddf6fc}.st39,.st40,.st41,.st42,.st43{clip-path:url(#SVGID_4_)}.st40{fill:#dcf5fc}.st41{fill:#dbf5fc}.st42{fill:#daf5fc}.st43{fill:#d9f5fc}.st44{fill:#d8f4fb}.st44,.st45,.st46,.st47,.st48{clip-path:url(#SVGID_4_)}.st45{fill:#d7f4fb}.st46{fill:#d6f4fb}.st47{fill:#d5f4fb}.st48{fill:#d4f3fb}.st49{fill:#d3f3fb}.st49,.st50,.st51,.st52,.st53{clip-path:url(#SVGID_4_)}.st50{fill:#d1f3fb}.st51{fill:#d0f3fb}.st52{fill:#cff2fb}.st53{fill:#cef2fb}.st54{fill:#cdf2fb}.st54,.st55,.st56,.st57,.st58{clip-path:url(#SVGID_4_)}.st55{fill:#ccf2fb}.st56{fill:#cbf1fa}.st57{fill:#caf1fa}.st58{fill:#c9f1fa}.st59{fill:#c8f1fa}.st59,.st60,.st61,.st62,.st63{clip-path:url(#SVGID_4_)}.st60{fill:#c7f0fa}.st61{fill:#c6f0fa}.st62{fill:#c5f0fa}.st63{fill:#c4effa}.st64{fill:#c3effa}.st64,.st65,.st66,.st67,.st68{clip-path:url(#SVGID_4_)}.st65{fill:#c2effa}.st66{fill:#c1effa}.st67{fill:#c0eefa}.st68{fill:#bfeefa}.st69{fill:#beeef9}.st69,.st70,.st71,.st72,.st73{clip-path:url(#SVGID_4_)}.st70{fill:#bdeef9}.st71{fill:#bcedf9}.st72{fill:#bbedf9}.st73{fill:#baedf9}.st74{fill:#b9edf9}.st74,.st75,.st76,.st77,.st78{clip-path:url(#SVGID_4_)}.st75{fill:#b8ecf9}.st76{fill:#b7ecf9}.st77{fill:#b6ecf9}.st78{fill:#b5ecf9}.st79{fill:#b4ebf9}.st79,.st80,.st81,.st82,.st83{clip-path:url(#SVGID_4_)}.st80{fill:#b3ebf9}.st81{fill:#b2ebf9}.st82{fill:#b1ebf8}.st83{fill:#b0eaf8}.st84{fill:#afeaf8}.st84,.st85,.st86,.st87,.st88{clip-path:url(#SVGID_4_)}.st85{fill:#aeeaf8}.st86{fill:#adeaf8}.st87{fill:#ace9f8}.st88{fill:#abe9f8}.st89{fill:#ffdf50}.st90{fill:#a8edea}.st91{fill:#fcd995}.st92{fill:#37352b}.st93{fill:#40ae80}.st94{fill:#fb4143}.st95{fill:#ffe13c}</style><g><g><defs><rect id="SVGID_1_" width="400" height="225"/></defs><clipPath id="SVGID_2_"><use xlink:href="#SVGID_1_" style="overflow:visible"/></clipPath></g></g><g><g><g><rect width="82.1" height="111.8" x="255.2" y="57.8" class="st0"/></g><g class="st1"><circle cx="299" cy="98.4" r="29.7" class="st2"/></g><g><circle cx="299.2" cy="98" r="20.3" class="st2"/></g><g><polygon points="327.3 131.7 299.4 112.7 273.3 129.1 255.3 114.8 255.5 149 337.3 142.1 337.3 122.3" class="st3"/></g><g class="st4"><g><polygon points="315.3 142.3 327.5 131.5 324.5 129.8 309.6 142.3"/></g></g><g class="st4"><g><polygon points="255.4 137.2 255.3 140.6 273.3 129 271.5 127.6"/></g></g><g><path d="M268.6,144c0,0,13.8-6,33.5-6.5c16.4-0.4,30.6,6.5,30.6,6.5l-39.2,11.4L268.6,144z" class="st5"/></g><g><path d="M324.8,142.6c0,0-20.1,9.1-41,5.9c-8-1.2-22.2-15.1-28.4-12v33.1l74.1-0.7L324.8,142.6z" class="st6"/></g><g><path d="M337.3,169.6l0.1-29.5c0,0-17.3-0.3-25.4,7c-14.1,12.7-56.3,22.6-56.3,22.6L337.3,169.6z" class="st7"/></g></g><g><g><rect width="82.1" height="111.8" x="62.7" y="57.5" class="st8"/></g><g><g><path d="M104.2,65.8c-5.8,1-11.2,4.2-14.7,9.4c-7,10.2-4.4,24.1,5.7,31.1c10.2,7,24.1,4.4,31.1-5.7 c0.2-0.3,0.4-0.7,0.6-1c-5.5,0.9-11.4-0.2-16.4-3.6C100.7,89.1,98,75.8,104.2,65.8z" class="st2"/></g></g><g><polygon points="144.8 169.2 144.8 137.3 134.7 147.4 106.9 122.1 80.8 147.2 62.9 125.5 62.9 169.2" class="st9"/></g><g class="st4"><g><polygon points="114.2 169.2 135 147.6 132 145 108.3 169.2"/></g></g><g class="st4"><g><polygon points="62.8 159.5 62.7 165 80.8 147.1 78.6 144.6"/></g></g></g><g><g><rect width="107.1" height="140.6" x="146.5" y="43.3" class="st2"/></g><g><path d="M255.6,185.9H144.5V41.3h111.1V185.9z M148.5,181.9h103.1V45.3H148.5V181.9z" class="st10"/></g></g><g><g><defs><rect id="SVGID_3_" width="82.1" height="111.8" x="159.2" y="57.5"/></defs><clipPath id="SVGID_4_"><use xlink:href="#SVGID_3_" style="overflow:visible"/></clipPath><rect width="82.1" height="36.7" x="159.2" y="132.7" class="st11"/><rect width="82.1" height=".9" x="159.2" y="131.8" class="st11"/><rect width="82.1" height=".9" x="159.2" y="131" class="st12"/><rect width="82.1" height=".9" x="159.2" y="130.1" class="st13"/><rect width="82.1" height=".9" x="159.2" y="129.2" class="st14"/><rect width="82.1" height=".9" x="159.2" y="128.4" class="st15"/><rect width="82.1" height=".9" x="159.2" y="127.5" class="st16"/><rect width="82.1" height=".9" x="159.2" y="126.7" class="st17"/><rect width="82.1" height=".9" x="159.2" y="125.8" class="st18"/><rect width="82.1" height=".9" x="159.2" y="124.9" class="st19"/><rect width="82.1" height=".9" x="159.2" y="124.1" class="st20"/><rect width="82.1" height=".9" x="159.2" y="123.2" class="st21"/><rect width="82.1" height=".9" x="159.2" y="122.4" class="st22"/><rect width="82.1" height=".9" x="159.2" y="121.5" class="st23"/><rect width="82.1" height=".9" x="159.2" y="120.6" class="st24"/><rect width="82.1" height=".9" x="159.2" y="119.8" class="st25"/><rect width="82.1" height=".9" x="159.2" y="118.9" class="st26"/><rect width="82.1" height=".9" x="159.2" y="118.1" class="st27"/><rect width="82.1" height=".9" x="159.2" y="117.2" class="st28"/><rect width="82.1" height=".9" x="159.2" y="116.3" class="st29"/><rect width="82.1" height=".9" x="159.2" y="115.5" class="st30"/><rect width="82.1" height=".9" x="159.2" y="114.6" class="st31"/><rect width="82.1" height=".9" x="159.2" y="113.8" class="st32"/><rect width="82.1" height=".9" x="159.2" y="112.9" class="st33"/><rect width="82.1" height=".9" x="159.2" y="112.1" class="st34"/><rect width="82.1" height=".9" x="159.2" y="111.2" class="st35"/><rect width="82.1" height=".9" x="159.2" y="110.3" class="st36"/><rect width="82.1" height=".9" x="159.2" y="109.5" class="st37"/><rect width="82.1" height=".9" x="159.2" y="108.6" class="st38"/><rect width="82.1" height=".9" x="159.2" y="107.8" class="st39"/><rect width="82.1" height=".9" x="159.2" y="106.9" class="st40"/><rect width="82.1" height=".9" x="159.2" y="106" class="st41"/><rect width="82.1" height=".9" x="159.2" y="105.2" class="st42"/><rect width="82.1" height=".9" x="159.2" y="104.3" class="st43"/><rect width="82.1" height=".9" x="159.2" y="103.5" class="st44"/><rect width="82.1" height=".9" x="159.2" y="102.6" class="st45"/><rect width="82.1" height=".9" x="159.2" y="101.7" class="st46"/><rect width="82.1" height=".9" x="159.2" y="100.9" class="st47"/><rect width="82.1" height=".9" x="159.2" y="100" class="st48"/><rect width="82.1" height=".9" x="159.2" y="99.2" class="st49"/><rect width="82.1" height=".9" x="159.2" y="98.3" class="st50"/><rect width="82.1" height=".9" x="159.2" y="97.4" class="st51"/><rect width="82.1" height=".9" x="159.2" y="96.6" class="st52"/><rect width="82.1" height=".9" x="159.2" y="95.7" class="st53"/><rect width="82.1" height=".9" x="159.2" y="94.9" class="st54"/><rect width="82.1" height=".9" x="159.2" y="94" class="st55"/><rect width="82.1" height=".9" x="159.2" y="93.1" class="st56"/><rect width="82.1" height=".9" x="159.2" y="92.3" class="st57"/><rect width="82.1" height=".9" x="159.2" y="91.4" class="st58"/><rect width="82.1" height=".9" x="159.2" y="90.6" class="st59"/><rect width="82.1" height=".9" x="159.2" y="89.7" class="st60"/><rect width="82.1" height=".9" x="159.2" y="88.9" class="st61"/><rect width="82.1" height=".9" x="159.2" y="88" class="st62"/><rect width="82.1" height=".9" x="159.2" y="87.1" class="st63"/><rect width="82.1" height=".9" x="159.2" y="86.3" class="st64"/><rect width="82.1" height=".9" x="159.2" y="85.4" class="st65"/><rect width="82.1" height=".9" x="159.2" y="84.6" class="st66"/><rect width="82.1" height=".9" x="159.2" y="83.7" class="st67"/><rect width="82.1" height=".9" x="159.2" y="82.8" class="st68"/><rect width="82.1" height=".9" x="159.2" y="82" class="st69"/><rect width="82.1" height=".9" x="159.2" y="81.1" class="st70"/><rect width="82.1" height=".9" x="159.2" y="80.3" class="st71"/><rect width="82.1" height=".9" x="159.2" y="79.4" class="st72"/><rect width="82.1" height=".9" x="159.2" y="78.5" class="st73"/><rect width="82.1" height=".9" x="159.2" y="77.7" class="st74"/><rect width="82.1" height=".9" x="159.2" y="76.8" class="st75"/><rect width="82.1" height=".9" x="159.2" y="76" class="st76"/><rect width="82.1" height=".9" x="159.2" y="75.1" class="st77"/><rect width="82.1" height=".9" x="159.2" y="74.2" class="st78"/><rect width="82.1" height=".9" x="159.2" y="73.4" class="st79"/><rect width="82.1" height=".9" x="159.2" y="72.5" class="st80"/><rect width="82.1" height=".9" x="159.2" y="71.7" class="st81"/><rect width="82.1" height=".9" x="159.2" y="70.8" class="st82"/><rect width="82.1" height=".9" x="159.2" y="69.9" class="st83"/><rect width="82.1" height=".9" x="159.2" y="69.1" class="st84"/><rect width="82.1" height=".9" x="159.2" y="68.2" class="st85"/><rect width="82.1" height=".9" x="159.2" y="67.4" class="st86"/><rect width="82.1" height=".9" x="159.2" y="66.5" class="st87"/><rect width="82.1" height=".9" x="159.2" y="65.7" class="st88"/><rect width="82.1" height="8.1" x="159.2" y="57.5" class="st88"/></g></g><g><path d="M173.9,57.9c3.2,10.9,13.3,18.8,25.2,18.8c11.9,0,22-7.9,25.2-18.8H173.9z" class="st89"/></g><g><rect width="81.8" height="37.3" x="159.4" y="125.1" class="st90"/></g><g><path d="M238.1,147.1L238.1,147.1c-3.1-2.9-7.6-3.4-11.2-1.3l-1.4,0.8c-2.9,1.7-6.3,1.8-9.2,0.1l-4.4-2.5 c-3.2-1.8-7.1-1.5-10.1,0.7l-2.5,1.9c-3.4,2.6-8,2.5-11.4-0.2l-5.7-4.6c-2.7-2.2-6.3-2.7-9.4-1.3l-13.4,6.8v21.7h82v-14.4 C241.4,151.9,240.2,149.1,238.1,147.1z" class="st91"/></g><g><g><polygon points="213.9 99.7 194.1 154.9 196 155.7 215.6 100.4" class="st92"/></g><g><g><path d="M221.9,133c3.9-2.3,8.2-3.7,12.8-4.3c-1.3-6.3-4.4-12.4-9.4-17.4c-3.7-3.7-7.9-6.3-12.5-8 c0.3,0.2,0.5,0.5,0.8,0.7C221.4,112,224.2,123,221.9,133z" class="st93"/></g><g><path d="M211.6,102.9c-11.2-3.7-23.8-1.3-32.5,7.4c-0.2,0.2-0.4,0.4-0.6,0.6c2.9,2,5.7,4.2,8.3,6.8 c2.6,2.6,4.8,5.3,6.8,8.2c0.1,0,0.1,0,0.2,0c1-6.1,3.8-12,8.5-16.7C205.1,106.5,208.3,104.4,211.6,102.9z" class="st94"/></g><g><path d="M202.3,109.3c-4.7,4.7-7.5,10.5-8.5,16.7c9-0.7,18.8,1.8,27.6,7.3c0.1-0.1,0.3-0.2,0.4-0.3 c2.3-10-0.5-21.1-8.3-28.9c-0.3-0.3-0.5-0.5-0.8-0.7c-0.4-0.1-0.8-0.3-1.1-0.4C208.3,104.4,205.1,106.5,202.3,109.3z" class="st95"/></g></g></g><g id="_Group_"><g><path d="M238.4,177.2c0,4.6,0,9.1,0,13.7c0,3.5-0.9,6.9-2.6,9.9c-1,1.8-2.5,3.4-4.2,4.6c-1.7,1.2-3.7,1.8-5.7,1.8 c-1.6,0-3.3,0-4.9,0c-2.3-0.2-4.5-1.1-6.3-2.7c-2-1.8-3.5-4.1-4.4-6.6c-0.1-0.3-0.3-0.5-0.4-0.8c-1.2-1.4-2.3-2.7-3.5-4.1 c-1.7-1.8-3.7-3.2-5.9-4.2c-1.1-0.5-1.9-1.5-2-2.7c-0.2-1.4,0.5-2.4,1.7-3.1c1.2-0.7,2.7-0.9,4.1-0.8c1.6,0.1,3.3,0.6,4.7,1.4 l0.2,0.1c0-0.5-0.1-1-0.1-1.4c0-7,0-15.5,0-22.5c0-2.4,2-4.3,4.3-4.3c0.2,0,0.5,0,0.7,0.1c2.2,0.3,3.8,2.2,3.6,4.4 c0,1.8,0,5.3,0,7.2c0,0.6,0,1.2,0,1.9c2-1.4,4.7-1,6.2,1c0.3,0.4,0.5,0.9,0.7,1.4c1.2-0.9,2.7-1.2,4.2-0.7 c1.4,0.5,2.5,1.7,2.8,3.2l0.3-0.2c2-1.3,4.8-0.7,6.1,1.3c0,0,0,0,0,0.1C238.2,175.8,238.4,176.5,238.4,177.2z" class="st2"/><path d="M223.2,209.2c-0.8,0-1.7,0-2.5-0.1c-2.8-0.2-5.5-1.3-7.5-3.2c-2.2-2-4-4.5-5-7.4c0,0-0.1-0.1-0.1-0.2l-0.6-0.8 c-0.9-1.1-1.8-2.2-2.8-3.2c-1.5-1.6-3.3-2.9-5.3-3.8c-1.7-0.7-3-2.4-3.2-4.3c-0.3-2.1,0.7-3.8,2.7-5c1.7-0.9,3.5-1.2,5.3-1.1 c0.9,0,1.8,0.2,2.7,0.4v-20.8c0-1.7,0.7-3.3,1.9-4.5s2.8-1.8,4.5-1.8c0.4,0,0.7,0,1.1,0.1c3.1,0.4,5.4,3.2,5.3,6.4v6.2 c0.5,0,1.1,0,1.6,0.1c1.6,0.3,3.1,1.2,4.1,2.5c1.3-0.4,2.6-0.3,3.9,0.1c1.3,0.4,2.4,1.3,3.2,2.4c1-0.3,2-0.3,3-0.1 c1.7,0.4,3.1,1.3,4,2.8l0.1,0.1c0.6,0.9,0.8,2,0.8,3v13.7c0,3.8-1,7.6-2.9,10.9c-1.2,2.1-2.9,3.9-4.9,5.2c-2,1.4-4.4,2.1-6.8,2.1 l-1.3,0C224.1,209.2,223.7,209.2,223.2,209.2z M203.4,184.2c-0.9,0-1.7,0.2-2.5,0.6c-0.7,0.4-0.7,0.8-0.7,1.1 c0.1,0.5,0.4,0.9,0.8,1.1c2.5,1.2,4.7,2.7,6.6,4.7c1,1.1,2,2.3,2.9,3.4l0.6,0.8c0.3,0.4,0.6,0.9,0.8,1.4c0.8,2.2,2.1,4.2,3.9,5.8 c1.4,1.3,3.2,2.1,5.1,2.2c1.1,0.1,2.3,0.1,3.5,0l1.3,0c1.6,0,3.2-0.5,4.6-1.4c1.5-1,2.7-2.4,3.6-3.9c1.6-2.7,2.4-5.8,2.4-8.9 v-13.7c0-0.3-0.1-0.7-0.3-1c-0.3-0.5-0.9-0.9-1.5-1s-1.3,0-1.8,0.3l-2.8,1.8l-0.5-2.9c-0.1-0.8-0.7-1.4-1.4-1.7 c-0.8-0.3-1.7-0.2-2.3,0.3l-2.4,1.8l-0.8-2.9c-0.1-0.3-0.2-0.5-0.4-0.8c-0.4-0.5-0.9-0.9-1.6-1c-0.6-0.1-1.3,0-1.8,0.4l-3.2,2.3 l0-13.1c0.1-1.1-0.8-2.2-1.9-2.3c-0.2,0-0.4,0-0.5,0c-0.6,0-1.2,0.2-1.6,0.7c-0.4,0.4-0.7,1-0.7,1.6v22.5c0,0.2,0,0.3,0,0.5 c0,0.3,0,0.6,0,0.9v3.2l-3.3-1.6c-1.1-0.7-2.4-1.1-3.7-1.1C203.8,184.2,203.6,184.2,203.4,184.2z"/></g></g></g></svg>